<svg width="69" height="68" viewBox="0 0 69 68" fill="none" xmlns="http://www.w3.org/2000/svg">
<circle cx="34.2529" cy="34" r="34" fill="#D9D9D9"/>
<path d="M48.4414 41.3734C47.4489 40.3734 45.0451 38.9141 43.8788 38.326C42.36 37.5611 42.235 37.4986 41.0412 38.3854C40.245 38.9772 39.7156 39.506 38.7837 39.3072C37.8518 39.1085 35.8267 37.9879 34.0536 36.2205C32.2804 34.4531 31.0947 32.3694 30.8953 31.4407C30.696 30.512 31.2335 29.9889 31.8197 29.1908C32.646 28.0658 32.5835 27.8783 31.8772 26.3597C31.3266 25.1785 29.8247 22.7973 28.8209 21.8099C27.7471 20.7493 27.7471 20.9368 27.0553 21.2243C26.492 21.4612 25.9516 21.7493 25.4408 22.0848C24.4408 22.7492 23.8858 23.301 23.4977 24.1304C23.1095 24.9597 22.9352 26.904 24.9396 30.5451C26.944 34.1862 28.3503 36.048 31.261 38.9504C34.1717 41.8527 36.4099 43.4133 39.6818 45.2482C43.7294 47.515 45.2819 47.0731 46.1138 46.6857C46.9457 46.2982 47.5001 45.7482 48.1658 44.7482C48.5022 44.2384 48.7909 43.6986 49.0283 43.1358C49.3164 42.4465 49.5039 42.4465 48.4414 41.3734Z" fill="#D9D9D9" stroke="#1F1F1F" stroke-width="2" stroke-miterlimit="10"/>
</svg>
