<svg width="69" height="68" viewBox="0 0 69 68" fill="none" xmlns="http://www.w3.org/2000/svg">
<circle cx="34.2529" cy="34" r="34" fill="#D9D9D9"/>
<path d="M34.2529 20C28.7321 20 24.2529 24.4274 24.2529 29.8803C24.2529 36.1546 30.9196 46.0977 33.3675 49.532C33.4691 49.677 33.6023 49.7949 33.7562 49.8763C33.9101 49.9576 34.0803 50 34.2529 50C34.4256 50 34.5958 49.9576 34.7497 49.8763C34.9036 49.7949 35.0367 49.677 35.1383 49.532C37.5863 46.0991 44.2529 36.1597 44.2529 29.8803C44.2529 24.4274 39.7738 20 34.2529 20Z" fill="#D9D9D9" stroke="#1F1F1F" stroke-width="2" stroke-linecap="round" stroke-linejoin="round"/>
<path d="M34.2529 35C36.4621 35 38.2529 33.2091 38.2529 31C38.2529 28.7909 36.4621 27 34.2529 27C32.0438 27 30.2529 28.7909 30.2529 31C30.2529 33.2091 32.0438 35 34.2529 35Z" fill="#D9D9D9" stroke="#1F1F1F" stroke-width="2" stroke-linecap="round" stroke-linejoin="round"/>
</svg>
