<svg width="178" height="50" viewBox="0 0 178 50" fill="none" xmlns="http://www.w3.org/2000/svg">
<g clip-path="url(#clip0_624_20290)">
<path d="M47.1104 47.7516V43.7366H47.8786V45.5835L49.3683 43.7366H50.3504L48.6335 45.6437L50.4573 47.7716H49.4819L47.8919 45.7641V47.7716L47.1104 47.7516Z" fill="#A70A12"/>
<path d="M52.8287 43.6165C54.1181 43.6165 54.8328 44.4663 54.8328 45.7243C54.862 46.005 54.8302 46.2888 54.7399 46.556C54.6495 46.8233 54.5025 47.0681 54.3092 47.2732C54.1157 47.4785 53.8802 47.6394 53.619 47.7451C53.3577 47.8508 53.0768 47.8987 52.7954 47.8856C52.5192 47.904 52.2425 47.8616 51.9846 47.761C51.7268 47.6606 51.4941 47.5047 51.303 47.3043C51.1118 47.1039 50.967 46.864 50.8785 46.6013C50.79 46.3388 50.7602 46.06 50.7912 45.7846C50.7586 45.5028 50.788 45.2174 50.877 44.9482C50.966 44.679 51.1127 44.4325 51.3068 44.226C51.5008 44.0196 51.7376 43.8581 52.0004 43.7527C52.2634 43.6474 52.546 43.6009 52.8287 43.6165ZM52.782 47.3236C53.6303 47.3236 53.9978 46.5273 53.9978 45.7042C53.9978 44.7406 53.5636 44.1719 52.8287 44.1719C52.0939 44.1719 51.5728 44.7808 51.5728 45.6908C51.5728 46.7147 52.027 47.3236 52.782 47.3236Z" fill="#A70A12"/>
<path d="M56.7097 47.7516H55.9482V43.7366H56.7097V45.4028H58.714V43.7366H59.4755V47.7516H58.714V45.9448H56.7097V47.7516Z" fill="#A70A12"/>
<path d="M63.0969 45.0148C63.0567 44.5331 62.8563 44.1717 62.2952 44.1717C61.4402 44.1717 61.253 45.0015 61.253 45.704C61.253 46.7613 61.5937 47.2834 62.2552 47.2834C62.3718 47.2901 62.4886 47.2721 62.5978 47.2305C62.7072 47.1888 62.8063 47.1244 62.889 47.0417C62.9716 46.9589 63.036 46.8594 63.0775 46.7501C63.119 46.6406 63.1371 46.5236 63.1302 46.4067H63.9118C63.9026 46.6098 63.8527 46.809 63.7652 46.9925C63.6776 47.1761 63.5542 47.3401 63.4022 47.4748C63.2501 47.6097 63.0726 47.7125 62.8802 47.7773C62.6878 47.8421 62.4843 47.8675 62.2819 47.8521C61.1328 47.8521 60.4781 47.1093 60.4781 45.7911C60.438 45.2107 60.6195 44.6366 60.9859 44.1851C61.1532 43.9979 61.3598 43.85 61.5906 43.7516C61.8215 43.6534 62.0712 43.6071 62.3219 43.6163C62.5183 43.5969 62.7166 43.6184 62.9043 43.6794C63.092 43.7405 63.2651 43.84 63.4124 43.9713C63.56 44.1027 63.6786 44.2632 63.7612 44.4428C63.8437 44.6224 63.8882 44.8171 63.8918 45.0148H63.0969Z" fill="#A70A12"/>
<path d="M67.3124 47.7575C67.2613 47.5929 67.2365 47.4213 67.2389 47.249V47.1554C67.1224 47.3842 66.9428 47.5746 66.7212 47.7039C66.4998 47.8332 66.2458 47.896 65.9897 47.8847C65.1412 47.8847 64.5801 47.4096 64.5801 46.6936C64.5785 46.5075 64.6171 46.3232 64.6931 46.1535C64.7692 45.9837 64.8811 45.8324 65.0209 45.71C65.4976 45.3574 66.0883 45.1952 66.6777 45.255C66.8376 45.2389 66.9988 45.2389 67.1587 45.255H67.2256V45.0809C67.2256 44.6527 67.1921 44.5121 67.0786 44.365C66.993 44.2747 66.889 44.2041 66.7737 44.1579C66.6584 44.1117 66.5345 44.091 66.4106 44.0973C65.9362 44.0973 65.6356 44.2846 65.6021 44.7664H64.8473C64.8491 44.5698 64.8997 44.3767 64.9942 44.2043C65.1511 43.9789 65.3668 43.801 65.6178 43.6901C65.8687 43.5791 66.1452 43.5394 66.4172 43.5754C66.6861 43.552 66.9567 43.5932 67.2064 43.6956C67.4563 43.7981 67.6781 43.9586 67.8534 44.1641C67.9566 44.3546 68.003 44.5705 67.9871 44.7864V46.7137C67.9807 47.0516 68.0008 47.3894 68.0472 47.7241L67.3124 47.7575ZM67.172 45.7902C67.0453 45.7837 66.9181 45.7837 66.7912 45.7902C66.5899 45.7886 66.3887 45.8043 66.1901 45.8371C65.6623 45.9174 65.3416 46.2051 65.3416 46.6066C65.3416 47.0081 65.6824 47.2758 66.1767 47.2758C66.3767 47.2862 66.5751 47.2336 66.7439 47.1256C66.9127 47.0178 67.0438 46.8597 67.1186 46.6735C67.1896 46.4578 67.2234 46.2314 67.2188 46.0044V45.797L67.172 45.7902Z" fill="#A70A12"/>
<path d="M69.069 47.1964C69.5901 47.1964 69.7371 46.6008 69.7371 44.7607V43.7168H72.5963V47.7318H71.8615V44.2722H70.5254V45.1019C70.5254 46.2663 70.345 47.1898 70.0444 47.4976C69.9356 47.599 69.8069 47.6769 69.6668 47.7264C69.5266 47.776 69.3777 47.796 69.2294 47.7853C69.0857 47.7777 68.9428 47.7599 68.8018 47.7318V47.1295C68.8889 47.1592 68.9783 47.1815 69.069 47.1964Z" fill="#A70A12"/>
<path d="M77.1126 44.2923H75.6495V47.7518H74.888V44.2923H73.4316V43.7168H77.1126V44.2923Z" fill="#A70A12"/>
<path d="M77.9404 47.7516V43.7366H78.6752V46.7545L80.5725 43.7366H81.4143V47.7516H80.6793V44.7202L78.7822 47.7516H77.9404Z" fill="#A70A12"/>
<path d="M83.579 47.7516H82.8174V43.7366H83.579V45.4028H85.5831V43.7366H86.3447V47.7516H85.5564V45.9448H83.5523L83.579 47.7516Z" fill="#A70A12"/>
<path d="M88.4754 47.7516H87.7139V43.7366H90.386V44.312H88.4954L88.4754 47.7516Z" fill="#A70A12"/>
<path d="M92.7579 43.6162C94.0472 43.6162 94.7286 44.4659 94.7286 45.724C94.7577 46.0047 94.7261 46.2885 94.6357 46.5558C94.5454 46.823 94.3984 47.0676 94.205 47.2729C94.0115 47.4782 93.7761 47.6391 93.5148 47.7448C93.2535 47.8505 92.9726 47.8985 92.6911 47.8853C92.415 47.9037 92.1383 47.8612 91.8805 47.7607C91.6227 47.6603 91.3899 47.5044 91.1988 47.304C91.0076 47.1036 90.8628 46.8636 90.7743 46.601C90.6859 46.3385 90.6561 46.0595 90.6869 45.7841C90.6538 45.4995 90.6837 45.211 90.7747 44.9393C90.8658 44.6675 91.0154 44.4193 91.2133 44.2121C91.4111 44.0051 91.652 43.8443 91.919 43.7412C92.186 43.6382 92.4725 43.5955 92.7579 43.6162ZM92.7112 47.3233C93.5596 47.3233 93.9269 46.527 93.9269 45.7039C93.9269 44.7403 93.4927 44.1716 92.7579 44.1716C92.023 44.1716 91.502 44.7805 91.502 45.6905C91.502 46.7143 91.9696 47.3233 92.7112 47.3233Z" fill="#A70A12"/>
<path d="M99.2047 46.5605C99.2008 46.7285 99.1625 46.8939 99.0921 47.0464C99.0217 47.1989 98.9206 47.3354 98.7953 47.4471C98.6699 47.5587 98.523 47.6435 98.3635 47.6959C98.2041 47.7482 98.0357 47.7672 97.8686 47.7516H95.8311V43.7366H97.6615C98.4833 43.7366 98.9976 44.0845 98.9976 44.7671C98.9946 44.9617 98.9275 45.1498 98.8066 45.3024C98.6858 45.4548 98.518 45.5631 98.3295 45.6102C98.5608 45.6471 98.7729 45.7609 98.9316 45.9333C99.0905 46.1056 99.1866 46.3266 99.2047 46.5605ZM97.5012 45.4228C98.0023 45.4228 98.2227 45.1954 98.2227 44.834C98.2227 44.4727 97.9955 44.2718 97.5547 44.2718H96.5526V45.4228H97.5012ZM97.6481 47.1962C98.1225 47.1962 98.403 46.9552 98.403 46.5605C98.403 46.1656 98.1291 45.9448 97.6013 45.9448H96.5526V47.1962H97.6481Z" fill="#A70A12"/>
<path d="M102.792 47.7575C102.743 47.5927 102.72 47.421 102.725 47.249V47.1554C102.608 47.3852 102.427 47.5764 102.205 47.7058C101.982 47.8352 101.726 47.8974 101.469 47.8847C100.621 47.8847 100.06 47.4096 100.06 46.6936C100.058 46.5075 100.097 46.3232 100.173 46.1535C100.249 45.9837 100.361 45.8324 100.5 45.71C100.979 45.3563 101.572 45.1941 102.164 45.255C102.324 45.239 102.485 45.239 102.645 45.255H102.705V45.0809C102.705 44.6527 102.672 44.5121 102.565 44.365C102.474 44.2717 102.365 44.1996 102.244 44.1532C102.122 44.107 101.993 44.0879 101.863 44.0973C101.389 44.0973 101.088 44.2846 101.055 44.7664H100.3C100.305 44.5702 100.356 44.3779 100.447 44.2043C100.604 43.9789 100.82 43.801 101.07 43.6901C101.321 43.5791 101.598 43.5394 101.87 43.5754C102.139 43.5514 102.41 43.5924 102.66 43.6948C102.91 43.7973 103.131 43.9582 103.306 44.1641C103.409 44.3546 103.456 44.5705 103.44 44.7864V46.7137C103.433 47.0516 103.454 47.3894 103.5 47.7241L102.792 47.7575ZM102.652 45.7902C102.525 45.7836 102.398 45.7836 102.271 45.7902C102.069 45.7886 101.868 45.8043 101.67 45.8371C101.142 45.9174 100.821 46.2051 100.821 46.6066C100.821 47.0081 101.162 47.2758 101.656 47.2758C101.857 47.2855 102.056 47.2329 102.226 47.1251C102.395 47.0174 102.528 46.8596 102.605 46.6735C102.672 46.4571 102.704 46.231 102.698 46.0044V45.797L102.652 45.7902Z" fill="#A70A12"/>
<path d="M104.902 45.6641C104.79 45.5623 104.701 45.4371 104.642 45.2972C104.583 45.1572 104.556 45.0061 104.562 44.8544C104.562 44.1852 105.103 43.7168 105.898 43.7168H107.868V47.7318H107.134V46.0454H106.078C105.771 46.0454 105.657 46.0454 105.544 46.2061C105.43 46.3667 105.397 46.4537 105.377 46.815C105.377 46.9823 105.377 47.0091 105.343 47.1095C105.303 47.3838 105.276 47.531 105.23 47.7318H104.441C104.556 47.44 104.631 47.1338 104.662 46.8217V46.7013C104.672 46.5207 104.722 46.3446 104.809 46.186C104.866 46.0953 104.941 46.0176 105.029 45.9576C105.118 45.8977 105.218 45.8571 105.323 45.838C105.172 45.8118 105.028 45.7525 104.902 45.6641ZM107.134 44.2788H106.111C105.637 44.2788 105.357 44.5131 105.357 44.9079C105.357 45.3027 105.63 45.5236 106.158 45.5236H107.134V44.2788Z" fill="#A70A12"/>
<path d="M112.238 47.7516H111.477V43.7366H114.149V44.312H112.258L112.238 47.7516Z" fill="#A70A12"/>
<path d="M115.017 44.3788C115.017 44.1603 115.017 43.9372 115.017 43.7097H115.778V44.3788C115.919 44.1444 116.121 43.9522 116.362 43.8228C116.603 43.6932 116.874 43.631 117.148 43.6428C118.19 43.6428 118.838 44.4391 118.838 45.7306C118.838 47.0221 118.17 47.892 117.007 47.892C116.767 47.9075 116.527 47.8602 116.31 47.7547C116.093 47.649 115.908 47.4888 115.771 47.2897V49.2972H115.017V44.3788ZM116.874 47.3299C117.622 47.3299 118.049 46.7476 118.049 45.6771C118.049 44.7068 117.669 44.1982 116.941 44.1982C116.212 44.1982 115.738 44.7536 115.738 45.8109C115.738 46.5938 115.965 47.3299 116.874 47.3299Z" fill="#A70A12"/>
<path d="M121.644 47.7719L121.063 49.2708H120.288L120.896 47.7318L119.219 43.7168H120.067L121.33 46.8953L122.612 43.7168H123.428L121.644 47.7719Z" fill="#A70A12"/>
<path d="M125.017 47.7516H124.256V43.7366H127.756V47.7516H126.995V44.292H124.991L125.017 47.7516Z" fill="#A70A12"/>
<path d="M129.914 47.7516H129.152V43.7366H132.653V47.7516H131.891V44.292H129.887L129.914 47.7516Z" fill="#A70A12"/>
<path d="M136.515 47.7577C136.46 47.5938 136.436 47.4216 136.441 47.2492V47.1554C136.325 47.3843 136.145 47.5747 135.923 47.704C135.702 47.8334 135.449 47.8961 135.192 47.8848C134.337 47.8848 133.782 47.4097 133.782 46.6938C133.78 46.5074 133.817 46.3227 133.894 46.1527C133.97 45.9828 134.082 45.8316 134.223 45.71C134.699 45.3557 135.291 45.1934 135.88 45.255C136.041 45.239 136.201 45.239 136.362 45.255H136.421V45.0811C136.421 44.6528 136.421 44.5123 136.281 44.365C136.19 44.2719 136.081 44.1996 135.96 44.1534C135.838 44.1071 135.709 44.088 135.58 44.0974C135.112 44.0974 134.805 44.2847 134.771 44.7665H134.056C134.057 44.5705 134.105 44.3774 134.197 44.2044C134.355 43.9785 134.571 43.8003 134.824 43.6894C135.075 43.5785 135.353 43.539 135.627 43.5754C135.894 43.552 136.163 43.5934 136.413 43.6958C136.661 43.7982 136.882 43.9589 137.056 44.1643C137.161 44.354 137.21 44.57 137.196 44.7866V46.7138C137.194 47.0516 137.213 47.3892 137.256 47.7242L136.515 47.7577ZM136.368 45.7904C136.243 45.7838 136.119 45.7838 135.993 45.7904C135.793 45.7885 135.592 45.8042 135.392 45.8371C134.858 45.9174 134.537 46.2053 134.537 46.6067C134.537 47.0082 134.878 47.2759 135.372 47.2759C135.573 47.2857 135.772 47.2331 135.942 47.1253C136.112 47.0174 136.244 46.8597 136.321 46.6736C136.391 46.458 136.424 46.2313 136.414 46.0044V45.797L136.368 45.7904Z" fill="#A70A12"/>
<path d="M140.67 47.7516V43.7366H141.405V45.5835L142.895 43.7366H143.877L142.16 45.6437L143.983 47.7716H143.001L141.405 45.7641V47.7716L140.67 47.7516Z" fill="#A70A12"/>
<path d="M146.387 43.6165C147.678 43.6165 148.392 44.4663 148.392 45.7243C148.421 46.005 148.39 46.2888 148.299 46.556C148.209 46.8233 148.062 47.0681 147.868 47.2732C147.675 47.4785 147.439 47.6394 147.177 47.7451C146.917 47.8508 146.635 47.8987 146.355 47.8856C146.078 47.904 145.802 47.8616 145.543 47.761C145.285 47.6606 145.054 47.5047 144.862 47.3043C144.671 47.1039 144.526 46.864 144.437 46.6013C144.35 46.3388 144.319 46.06 144.35 45.7846C144.317 45.5028 144.347 45.2174 144.436 44.9482C144.525 44.679 144.672 44.4325 144.866 44.226C145.06 44.0196 145.296 43.8581 145.559 43.7527C145.822 43.6474 146.105 43.6009 146.387 43.6165ZM146.341 47.3236C147.19 47.3236 147.556 46.5273 147.556 45.7042C147.556 44.7406 147.122 44.1719 146.387 44.1719C145.652 44.1719 145.132 44.7808 145.132 45.6908C145.132 46.7147 145.586 47.3236 146.341 47.3236Z" fill="#A70A12"/>
<path d="M153.242 47.7516V44.4994L152.073 47.7516H151.426L150.25 44.4994V47.7516H149.521V43.7366H150.664L151.746 46.8348L152.821 43.7366H153.97V47.7516H153.242Z" fill="#A70A12"/>
<path d="M156.102 47.7516H155.367V43.7366H158.866V47.7516H158.106V44.292H156.102V47.7516Z" fill="#A70A12"/>
<path d="M162.728 47.7577C162.674 47.5938 162.649 47.4216 162.655 47.2492V47.1554C162.538 47.3843 162.359 47.5747 162.138 47.704C161.915 47.8334 161.662 47.8961 161.405 47.8848C160.55 47.8848 159.996 47.4097 159.996 46.6938C159.994 46.5081 160.03 46.324 160.105 46.1542C160.181 45.9843 160.292 45.8328 160.43 45.71C160.909 45.3565 161.502 45.1942 162.093 45.255C162.254 45.239 162.414 45.239 162.575 45.255H162.635V45.0811C162.635 44.6528 162.635 44.5123 162.495 44.365C162.405 44.2719 162.294 44.1996 162.173 44.1534C162.053 44.1071 161.922 44.088 161.792 44.0974C161.326 44.0974 161.018 44.2847 160.985 44.7665H160.236C160.236 44.5705 160.285 44.3774 160.377 44.2044C160.534 43.9785 160.751 43.8003 161.004 43.6894C161.256 43.5785 161.533 43.539 161.806 43.5754C162.074 43.552 162.344 43.5934 162.592 43.6958C162.842 43.7982 163.061 43.9589 163.237 44.1643C163.34 44.354 163.39 44.57 163.377 44.7866L163.343 46.7138C163.339 47.0516 163.359 47.3892 163.403 47.7242L162.728 47.7577ZM162.581 45.7904C162.457 45.7838 162.332 45.7838 162.208 45.7904C162.005 45.7885 161.805 45.8042 161.606 45.8371C161.071 45.9174 160.751 46.2053 160.751 46.6067C160.751 47.0082 161.091 47.2759 161.586 47.2759C161.787 47.2857 161.985 47.2331 162.155 47.1253C162.325 47.0174 162.457 46.8597 162.534 46.6736C162.602 46.4573 162.634 46.2312 162.628 46.0044V45.797L162.581 45.7904Z" fill="#A70A12"/>
<path d="M165.454 47.7516H164.719V43.7366H165.454V45.4028H167.459V43.7366H168.219V47.7516H167.459V45.9448H165.454V47.7516Z" fill="#A70A12"/>
<path d="M169.623 47.7516V43.7366H170.358V46.7545L172.254 43.7366H173.097V47.7516H172.355V44.7202L170.458 47.7516H169.623Z" fill="#A70A12"/>
<path d="M174.52 47.7513V43.7363H175.254V46.7541L177.152 43.7363H177.993V47.7513H177.258V44.7199L175.361 47.7513H174.52ZM176.263 42.5251C176.437 42.5414 176.611 42.4922 176.75 42.3871C176.89 42.2818 176.986 42.1282 177.018 41.9563H177.412C177.417 42.1074 177.39 42.2578 177.334 42.3977C177.277 42.5375 177.191 42.6639 177.082 42.7682C176.972 42.8724 176.843 42.9524 176.7 43.0028C176.558 43.0532 176.406 43.0728 176.256 43.0605C176.109 43.0704 175.961 43.0485 175.824 42.9966C175.685 42.9445 175.559 42.8635 175.455 42.759C175.35 42.6544 175.269 42.5287 175.218 42.3902C175.165 42.2518 175.144 42.1039 175.155 41.9563H175.535C175.559 42.1268 175.65 42.281 175.784 42.387C175.921 42.4929 176.092 42.5424 176.263 42.5251Z" fill="#A70A12"/>
<path fill-rule="evenodd" clip-rule="evenodd" d="M36.2079 20.7842C34.5245 20.9782 32.8677 21.0853 31.1576 21.1188C28.7659 21.1589 23.2947 20.7842 23.2947 20.7842V28.145C23.2947 32.983 23.5218 35.9139 20.9364 35.9139C18.144 35.9139 18.3912 33.3176 18.3912 28.0781V5.9957C18.3912 1.80674 16.013 -0.200746 12.1784 0.0602281C8.12476 0.36805 4.05365 0.36805 0 0.0602281V28.7941C0 42.7193 8.27037 48.153 20.7494 48.153C24.2932 48.2447 27.8249 47.7008 31.1775 46.5469C37.858 44.0242 41.6458 38.2761 41.6926 27.8104C41.6926 24.4646 40.1227 20.3426 36.228 20.7708L36.2079 20.7842ZM31.2577 18.4154C33.0758 18.4154 34.8529 17.8753 36.3647 16.8635C37.8764 15.8518 39.0546 14.4138 39.7502 12.7313C40.4461 11.0488 40.6281 9.19746 40.2733 7.41135C39.9187 5.62524 39.0432 3.98458 37.7576 2.69687C36.4721 1.40915 34.8342 0.532206 33.0511 0.176925C31.2679 -0.178355 29.4196 0.00399585 27.74 0.700903C26.0603 1.39781 24.6247 2.57797 23.6147 4.09218C22.6045 5.60637 22.0654 7.38657 22.0654 9.20768C22.0654 11.6497 23.0339 13.9918 24.7578 15.7185C26.4817 17.4453 28.8198 18.4154 31.2577 18.4154Z" fill="#A70A12"/>
<path d="M127.182 38.4297V30.2392L133.014 38.4297C133.722 38.3362 134.437 38.2936 135.152 38.3026C135.767 38.3026 136.334 38.3026 136.775 38.3627C136.975 38.3627 137.149 38.403 137.296 38.4297L136.775 37.6936L129.954 28.0844L136.133 20.7236C135.763 20.8201 135.381 20.863 134.998 20.8508C134.615 20.8619 134.233 20.819 133.862 20.7236L127.182 28.7536V20.7236C125.9 20.8932 124.602 20.8932 123.32 20.7236V38.4028C123.959 38.303 124.605 38.2582 125.251 38.269C125.897 38.2604 126.542 38.303 127.182 38.3962" fill="#A70A12"/>
<path d="M98.5693 22.5902C100.112 22.617 101.651 22.7376 103.179 22.9516C103.179 22.6305 103.179 22.2825 103.179 21.8676C103.179 21.4526 103.179 21.0913 103.179 20.7568H89.9648C89.9648 21.0913 89.9648 21.466 89.9648 21.8676C89.9648 22.2691 89.9648 22.6305 89.9648 22.9516C91.5497 22.7271 93.1475 22.6064 94.7481 22.5902V38.436C95.3824 38.3393 96.0239 38.2967 96.6653 38.3089C97.3113 38.2966 97.9572 38.3391 98.596 38.436L98.5693 22.5902Z" fill="#A70A12"/>
<path d="M82.37 38.7916C84.1078 38.7982 85.8185 38.3607 87.3403 37.5203C87.4004 37.2124 87.4805 36.8511 87.5807 36.4897C87.6809 36.1284 87.7679 35.7738 87.8681 35.4659L87.4137 35.2585C86.0597 36.5634 84.2489 37.2842 82.37 37.2659C79.2569 37.2659 76.8186 33.8265 76.8186 29.5705C76.8186 25.3147 79.1968 21.8819 82.37 21.8819C83.2623 21.888 84.1404 22.1058 84.9324 22.5176C85.7244 22.9293 86.4076 23.5234 86.926 24.2508H87.4404C87.4872 23.8961 87.5673 23.4678 87.6675 23.0128C87.7677 22.5578 87.848 22.2768 87.9415 21.9689C86.2795 20.9005 84.3447 20.3358 82.37 20.3428C76.9455 20.3428 72.5498 24.4782 72.5498 29.5773C72.5498 34.6763 76.9455 38.7916 82.37 38.7916Z" fill="#A70A12"/>
<path d="M61.5666 20.2422C59.4109 20.2565 57.3293 21.0321 55.6882 22.4323C54.0471 23.8326 52.9517 25.7679 52.5947 27.8975H51.1252V20.7575C50.4907 20.8541 49.8494 20.8966 49.2079 20.8846C48.5597 20.8969 47.9116 20.8545 47.2705 20.7575V38.4368C47.9113 38.3368 48.5594 38.2921 49.2079 38.303C49.8492 38.2944 50.4904 38.3369 51.1252 38.43V29.8781H52.4612C52.5603 31.6592 53.1785 33.3721 54.2389 34.8052C55.2995 36.2381 56.756 37.3284 58.4284 37.9414C60.1008 38.5542 61.9159 38.6629 63.6492 38.2537C65.3825 37.8445 66.9583 36.9356 68.1815 35.6391C69.4047 34.3427 70.2219 32.7157 70.532 30.9591C70.8422 29.2026 70.6317 27.3935 69.9264 25.7554C69.2213 24.1175 68.0524 22.7223 66.5644 21.7425C65.0762 20.7627 63.3341 20.2411 61.5533 20.2422H61.5666ZM61.5666 37.1787C58.7274 37.1787 56.4227 33.7326 56.4227 29.4834C56.4227 25.2342 58.7274 21.7948 61.5666 21.7948C64.4058 21.7948 66.7173 25.2342 66.7173 29.4834C66.7173 33.7326 64.4124 37.1787 61.5666 37.1787Z" fill="#A70A12"/>
<path d="M146.081 20.2952C144.077 20.2628 142.112 20.8456 140.45 21.9654C138.787 23.0852 137.507 24.6881 136.782 26.5586C136.435 27.5105 136.258 28.5163 136.26 29.5297C136.258 30.5474 136.435 31.5574 136.782 32.5141C137.504 34.387 138.784 35.9928 140.447 37.1151C142.11 38.2374 144.076 38.8223 146.081 38.7908C151.511 38.7908 155.914 34.6554 155.914 29.5497C155.914 24.444 151.504 20.2952 146.081 20.2952ZM146.081 37.225C143.021 37.225 140.536 33.7855 140.536 29.5297C140.536 25.2737 143.021 21.8409 146.081 21.8409C149.141 21.8409 151.645 25.2871 151.645 29.5297C151.645 33.7721 149.147 37.225 146.081 37.225Z" fill="#A70A12"/>
<path d="M109.266 32.8351V20.7902C108.628 20.8775 107.985 20.9178 107.342 20.9106C106.698 20.9183 106.055 20.8781 105.418 20.7902V38.4562H107.335L117.122 26.284V38.4562C118.401 38.2866 119.697 38.2866 120.977 38.4562V20.7568H119.013L109.266 32.8351Z" fill="#A70A12"/>
<path d="M175.741 20.7568C175.382 20.8531 175.012 20.8982 174.639 20.8906C174.273 20.8979 173.906 20.8528 173.551 20.7568L167.538 32.8686L161.627 20.7568C161.276 20.8529 160.913 20.8979 160.55 20.8906C160.192 20.8982 159.834 20.8531 159.488 20.7568L156.869 38.4294C157.475 38.2597 158.115 38.2597 158.721 38.4294L160.356 26.7458L165.989 38.3356C166.313 38.2999 166.639 38.2999 166.964 38.3356L172.676 26.4581L174.252 38.4628C175.496 38.2933 176.757 38.2933 178 38.4628L175.741 20.7568Z" fill="#A70A12"/>
</g>
<defs>
<clipPath id="clip0_624_20290">
<rect width="178" height="50" fill="white"/>
</clipPath>
</defs>
</svg>
