<svg width="24" height="28" viewBox="0 0 24 28" fill="none" xmlns="http://www.w3.org/2000/svg">
<path fill-rule="evenodd" clip-rule="evenodd" d="M20.7483 12.0548C19.7837 12.1674 18.8343 12.2295 17.8543 12.2489C16.4838 12.2722 13.3486 12.0548 13.3486 12.0548V16.3241C13.3486 19.1301 13.4788 20.8301 11.9973 20.8301C10.3971 20.8301 10.5388 19.3242 10.5388 16.2853V3.47751C10.5388 1.04791 9.17598 -0.116433 6.97864 0.0349323C4.65576 0.213469 2.32288 0.213469 0 0.0349323V16.7006C0 24.7772 4.7392 27.9287 11.8901 27.9287C13.9208 27.9819 15.9446 27.6665 17.8658 26.9972C21.6939 25.534 23.8644 22.2001 23.8913 16.13C23.8913 14.1895 22.9917 11.7987 20.7599 12.0471L20.7483 12.0548ZM17.9117 10.6809C18.9535 10.6809 19.9719 10.3677 20.8382 9.78084C21.7044 9.19402 22.3796 8.35999 22.7782 7.38415C23.177 6.40831 23.2813 5.33453 23.078 4.29858C22.8747 3.26264 22.3731 2.31106 21.6364 1.56418C20.8997 0.817306 19.9612 0.308679 18.9394 0.102616C17.9175 -0.103446 16.8584 0.00231759 15.8959 0.406524C14.9334 0.81073 14.1108 1.49522 13.532 2.37346C12.9531 3.25169 12.6442 4.28421 12.6442 5.34045C12.6442 6.75683 13.1992 8.11522 14.187 9.11674C15.1749 10.1183 16.5147 10.6809 17.9117 10.6809Z" fill="white"/>
</svg>
