<svg width="18" height="18" viewBox="0 0 18 18" fill="none" xmlns="http://www.w3.org/2000/svg">
<g clip-path="url(#clip0_106_1319)">
<path d="M9.06413 -0.00634766C5.37469 -0.00634766 2.25 3.13634 2.25 6.8584C2.25 10.7565 5.87194 14.743 8.30813 17.5448C8.31769 17.556 8.71144 17.9931 9.19631 17.9931H9.23906C9.7245 17.9931 10.1154 17.556 10.125 17.5448C12.411 14.9168 15.75 10.5827 15.75 6.8584C15.75 3.13578 13.3127 -0.00634766 9.06413 -0.00634766ZM9.28969 16.7899C9.27 16.8096 9.24131 16.8315 9.216 16.8501C9.19013 16.8321 9.162 16.8096 9.14119 16.7899L8.847 16.4513C6.53737 13.8019 3.37444 10.1732 3.37444 6.85784C3.37444 3.74609 5.97994 1.11753 9.06356 1.11753C12.9049 1.11753 14.6244 4.00034 14.6244 6.85784C14.6244 9.37447 12.8295 12.7168 9.28969 16.7899ZM9.01969 3.39959C7.15613 3.39959 5.64469 4.91047 5.64469 6.77459C5.64469 8.63872 7.15613 10.1496 9.01969 10.1496C10.8833 10.1496 12.3947 8.63815 12.3947 6.77459C12.3947 4.91103 10.8838 3.39959 9.01969 3.39959ZM9.01969 9.02459C7.77881 9.02459 6.74381 7.99072 6.74381 6.74984C6.74381 5.50897 7.75294 4.49984 8.99381 4.49984C10.2352 4.49984 11.2438 5.50897 11.2438 6.74984C11.2444 7.99072 10.2611 9.02459 9.01969 9.02459Z" fill="#A70A12"/>
</g>
<defs>
<clipPath id="clip0_106_1319">
<rect width="18" height="18" fill="white"/>
</clipPath>
</defs>
</svg>
