<svg width="27" height="18" viewBox="0 0 27 18" fill="none" xmlns="http://www.w3.org/2000/svg">
<g clip-path="url(#clip0_624_2365)">
<path d="M25.9813 3.84388C25.9813 3.84388 25.7273 2.07937 24.9453 1.30459C23.9551 0.284871 22.848 0.279872 22.3402 0.219889C18.7043 -0.0400392 13.2453 -0.0400391 13.2453 -0.0400391H13.2352C13.2352 -0.0400391 7.77617 -0.0400392 4.14023 0.219889C3.63242 0.279872 2.52539 0.284871 1.53516 1.30459C0.753125 2.07937 0.504297 3.84388 0.504297 3.84388C0.504297 3.84388 0.240234 5.91831 0.240234 7.98773V9.92719C0.240234 11.9966 0.499219 14.071 0.499219 14.071C0.499219 14.071 0.753125 15.8356 1.53008 16.6103C2.52031 17.6301 3.82031 17.5951 4.39922 17.705C6.48125 17.9 13.2402 17.96 13.2402 17.96C13.2402 17.96 18.7043 17.95 22.3402 17.695C22.848 17.635 23.9551 17.6301 24.9453 16.6103C25.7273 15.8356 25.9813 14.071 25.9813 14.071C25.9813 14.071 26.2402 12.0016 26.2402 9.92719V7.98773C26.2402 5.91831 25.9813 3.84388 25.9813 3.84388ZM10.5539 12.2815V5.08854L17.577 8.69753L10.5539 12.2815Z" fill="#1F1F1F"/>
</g>
<defs>
<clipPath id="clip0_624_2365">
<rect width="26" height="18" fill="white" transform="translate(0.0839844)"/>
</clipPath>
</defs>
</svg>
