<svg width="18" height="19" viewBox="0 0 18 19" fill="none" xmlns="http://www.w3.org/2000/svg">
<g clip-path="url(#clip0_624_21532)">
<path d="M9.74998 1.08372C9.74998 0.884805 9.829 0.694039 9.96965 0.553387C10.1103 0.412735 10.3011 0.333717 10.5 0.333717C12.4884 0.335901 14.3948 1.12678 15.8009 2.53283C17.2069 3.93888 17.9978 5.84526 18 7.83372C18 8.03263 17.921 8.2234 17.7803 8.36405C17.6396 8.5047 17.4489 8.58372 17.25 8.58372C17.0511 8.58372 16.8603 8.5047 16.7196 8.36405C16.579 8.2234 16.5 8.03263 16.5 7.83372C16.4982 6.24297 15.8655 4.71788 14.7406 3.59305C13.6158 2.46822 12.0907 1.8355 10.5 1.83372C10.3011 1.83372 10.1103 1.7547 9.96965 1.61405C9.829 1.4734 9.74998 1.28263 9.74998 1.08372ZM10.5 4.83372C11.2956 4.83372 12.0587 5.14979 12.6213 5.7124C13.1839 6.27501 13.5 7.03807 13.5 7.83372C13.5 8.03263 13.579 8.2234 13.7196 8.36405C13.8603 8.5047 14.0511 8.58372 14.25 8.58372C14.4489 8.58372 14.6396 8.5047 14.7803 8.36405C14.921 8.2234 15 8.03263 15 7.83372C14.9988 6.64061 14.5243 5.49671 13.6806 4.65305C12.837 3.8094 11.6931 3.33491 10.5 3.33372C10.3011 3.33372 10.1103 3.41274 9.96965 3.55339C9.829 3.69404 9.74998 3.88481 9.74998 4.08372C9.74998 4.28263 9.829 4.4734 9.96965 4.61405C10.1103 4.7547 10.3011 4.83372 10.5 4.83372ZM17.3197 12.888C17.7544 13.3238 17.9984 13.9142 17.9984 14.5297C17.9984 15.1452 17.7544 15.7356 17.3197 16.1715L16.6372 16.9582C10.4947 22.839 -4.45276 7.89522 1.33724 1.73322L2.19974 0.983217C2.63606 0.560725 3.22118 0.327004 3.82851 0.332618C4.43584 0.338233 5.01654 0.582731 5.44498 1.01322C5.46823 1.03647 6.85798 2.84172 6.85798 2.84172C7.27035 3.27494 7.49991 3.85041 7.49893 4.44852C7.49795 5.04663 7.26652 5.62135 6.85273 6.05322L5.98423 7.14522C6.46487 8.31305 7.17153 9.3744 8.06361 10.2683C8.95569 11.1622 10.0156 11.871 11.1825 12.354L12.2812 11.4802C12.7132 11.0668 13.2878 10.8356 13.8857 10.8348C14.4836 10.8339 15.0589 11.0635 15.492 11.4757C15.492 11.4757 17.2965 12.8647 17.3197 12.888ZM16.2877 13.9785C16.2877 13.9785 14.493 12.5977 14.4697 12.5745C14.3152 12.4213 14.1064 12.3353 13.8888 12.3353C13.6713 12.3353 13.4625 12.4213 13.308 12.5745C13.2877 12.5955 11.775 13.8007 11.775 13.8007C11.673 13.8819 11.5517 13.935 11.423 13.955C11.2942 13.975 11.1625 13.9611 11.0407 13.9147C9.52907 13.3519 8.15603 12.4708 7.01461 11.331C5.87318 10.1913 4.99003 8.81954 4.42498 7.30872C4.37488 7.18531 4.35855 7.05078 4.37766 6.91897C4.39677 6.78716 4.45064 6.66281 4.53373 6.55872C4.53373 6.55872 5.73898 5.04522 5.75923 5.02572C5.91243 4.87121 5.99839 4.66243 5.99839 4.44484C5.99839 4.22726 5.91243 4.01848 5.75923 3.86397C5.73598 3.84147 4.35523 2.04522 4.35523 2.04522C4.19841 1.9046 3.99374 1.82929 3.78317 1.83473C3.5726 1.84017 3.37209 1.92594 3.22274 2.07447L2.36024 2.82447C-1.87126 7.91247 11.082 20.1472 15.5407 15.9337L16.224 15.1462C16.3841 14.9979 16.4802 14.7932 16.4921 14.5752C16.504 14.3573 16.4307 14.1433 16.2877 13.9785Z" fill="#A70A12"/>
</g>
<defs>
<clipPath id="clip0_624_21532">
<rect width="18" height="18" fill="white" transform="translate(0 0.333496)"/>
</clipPath>
</defs>
</svg>
