<svg width="29" height="28" viewBox="0 0 29 28" fill="none" xmlns="http://www.w3.org/2000/svg">
<path d="M26.4414 21.3734C25.4489 20.3734 23.0451 18.9141 21.8788 18.326C20.36 17.5611 20.235 17.4986 19.0412 18.3854C18.245 18.9772 17.7156 19.506 16.7837 19.3072C15.8518 19.1085 13.8267 17.9879 12.0535 16.2205C10.2804 14.4531 9.09473 12.3694 8.89535 11.4407C8.69597 10.512 9.23348 9.98888 9.81975 9.19079C10.646 8.06584 10.5835 7.87835 9.87725 6.35966C9.32661 5.17846 7.8247 2.79732 6.82092 1.80986C5.74715 0.74928 5.74715 0.936772 5.05526 1.22426C4.49197 1.46124 3.95158 1.74931 3.44084 2.08485C2.44082 2.74919 1.8858 3.30104 1.49767 4.13038C1.10953 4.95972 0.935155 6.90402 2.93958 10.5451C4.944 14.1862 6.35029 16.048 9.26098 18.9504C12.1717 21.8527 14.4099 23.4133 17.6818 25.2482C21.7294 27.515 23.2819 27.0731 24.1138 26.6857C24.9457 26.2982 25.5001 25.7482 26.1658 24.7482C26.5022 24.2384 26.7909 23.6986 27.0283 23.1358C27.3164 22.4465 27.5039 22.4465 26.4414 21.3734Z" fill="#D9D9D9" stroke="#1F1F1F" stroke-width="2" stroke-miterlimit="10"/>
</svg>
