<svg width="19" height="18" viewBox="0 0 19 18" fill="none" xmlns="http://www.w3.org/2000/svg">
<g clip-path="url(#clip0_417_34296)">
<path d="M9.52414 14.25C9.81972 14.2505 10.1125 14.1926 10.3856 14.0796C10.6587 13.9666 10.9068 13.8007 11.1156 13.5915L14.0549 10.65L12.9944 9.5925L10.2696 12.318L10.2501 0H8.75014L8.76964 12.306L6.05464 9.591L4.99414 10.65L7.93339 13.5892C8.14195 13.7987 8.38985 13.9649 8.66284 14.0783C8.93583 14.1917 9.22854 14.2501 9.52414 14.25V14.25Z" fill="#A70A12"/>
<path d="M17 12.0002V15.7502C17 15.9491 16.921 16.1399 16.7803 16.2806C16.6397 16.4212 16.4489 16.5002 16.25 16.5002H2.75C2.55109 16.5002 2.36032 16.4212 2.21967 16.2806C2.07902 16.1399 2 15.9491 2 15.7502V12.0002H0.5V15.7502C0.5 16.347 0.737053 16.9193 1.15901 17.3412C1.58097 17.7632 2.15326 18.0002 2.75 18.0002H16.25C16.8467 18.0002 17.419 17.7632 17.841 17.3412C18.2629 16.9193 18.5 16.347 18.5 15.7502V12.0002H17Z" fill="#A70A12"/>
</g>
<defs>
<clipPath id="clip0_417_34296">
<rect width="18" height="18" fill="white" transform="translate(0.5)"/>
</clipPath>
</defs>
</svg>
