<svg width="18" height="19" viewBox="0 0 18 19" fill="none" xmlns="http://www.w3.org/2000/svg">
<g clip-path="url(#clip0_624_21536)">
<path d="M14.25 1.0835H3.75C2.7558 1.08469 1.80267 1.48016 1.09966 2.18316C0.396661 2.88616 0.00119089 3.8393 0 4.8335L0 13.8335C0.00119089 14.8277 0.396661 15.7808 1.09966 16.4838C1.80267 17.1868 2.7558 17.5823 3.75 17.5835H14.25C15.2442 17.5823 16.1973 17.1868 16.9003 16.4838C17.6033 15.7808 17.9988 14.8277 18 13.8335V4.8335C17.9988 3.8393 17.6033 2.88616 16.9003 2.18316C16.1973 1.48016 15.2442 1.08469 14.25 1.0835V1.0835ZM3.75 2.5835H14.25C14.6991 2.58438 15.1376 2.71963 15.5092 2.97185C15.8808 3.22407 16.1684 3.58171 16.335 3.99875L10.5915 9.743C10.1688 10.164 9.59656 10.4003 9 10.4003C8.40344 10.4003 7.83118 10.164 7.4085 9.743L1.665 3.99875C1.83161 3.58171 2.11921 3.22407 2.49079 2.97185C2.86236 2.71963 3.30091 2.58438 3.75 2.5835V2.5835ZM14.25 16.0835H3.75C3.15326 16.0835 2.58097 15.8464 2.15901 15.4245C1.73705 15.0025 1.5 14.4302 1.5 13.8335V5.9585L6.348 10.8035C7.05197 11.5057 8.00569 11.9 9 11.9C9.99431 11.9 10.948 11.5057 11.652 10.8035L16.5 5.9585V13.8335C16.5 14.4302 16.2629 15.0025 15.841 15.4245C15.419 15.8464 14.8467 16.0835 14.25 16.0835Z" fill="#A70A12"/>
</g>
<defs>
<clipPath id="clip0_624_21536">
<rect width="18" height="18" fill="white" transform="translate(0 0.333496)"/>
</clipPath>
</defs>
</svg>
