<svg width="23" height="32" viewBox="0 0 23 32" fill="none" xmlns="http://www.w3.org/2000/svg">
<path d="M11.2529 1C5.7321 1 1.25293 5.42738 1.25293 10.8803C1.25293 17.1546 7.9196 27.0977 10.3675 30.532C10.4691 30.677 10.6023 30.7949 10.7562 30.8763C10.9101 30.9576 11.0803 31 11.2529 31C11.4256 31 11.5958 30.9576 11.7497 30.8763C11.9036 30.7949 12.0367 30.677 12.1383 30.532C14.5863 27.0991 21.2529 17.1597 21.2529 10.8803C21.2529 5.42738 16.7738 1 11.2529 1Z" fill="#D9D9D9" stroke="#1F1F1F" stroke-width="2" stroke-linecap="round" stroke-linejoin="round"/>
<path d="M11.2529 16C13.4621 16 15.2529 14.2091 15.2529 12C15.2529 9.79086 13.4621 8 11.2529 8C9.04379 8 7.25293 9.79086 7.25293 12C7.25293 14.2091 9.04379 16 11.2529 16Z" fill="#D9D9D9" stroke="#1F1F1F" stroke-width="2" stroke-linecap="round" stroke-linejoin="round"/>
</svg>
