<svg width="18" height="17" viewBox="0 0 18 17" fill="none" xmlns="http://www.w3.org/2000/svg">
<path d="M9.0007 0.0532227C13.5738 0.0532227 17.2807 3.76014 17.2807 8.33322C17.2807 12.9063 13.5738 16.6132 9.0007 16.6132C4.42762 16.6132 0.720703 12.9063 0.720703 8.33322C0.720703 3.76014 4.42762 0.0532227 9.0007 0.0532227ZM11.8569 11.7082C12.0092 11.2409 12.7227 6.58398 12.8109 5.66634C12.8376 5.38842 12.7497 5.20374 12.5777 5.1213C12.3696 5.02122 12.0614 5.07126 11.7039 5.20014C11.2136 5.3769 4.9453 8.03838 4.58314 8.19246C4.2397 8.33826 3.91498 8.49738 3.91498 8.72778C3.91498 8.88978 4.0111 8.98086 4.27606 9.07554C4.55182 9.17382 5.24626 9.38442 5.6563 9.49746C6.05122 9.60654 6.50086 9.51186 6.75286 9.35526C7.01998 9.1893 10.1027 7.1265 10.3241 6.94578C10.5451 6.76506 10.7215 6.99654 10.5408 7.17762C10.3601 7.35834 8.24398 9.41214 7.96498 9.69654C7.62622 10.0418 7.8667 10.3996 8.09386 10.5429C8.35342 10.7063 10.22 11.9584 10.5012 12.1593C10.7823 12.3602 11.0675 12.4513 11.3285 12.4513C11.5895 12.4513 11.727 12.1075 11.8569 11.7082Z" fill="#707070"/>
</svg>
